%TF.GenerationSoftware,KiCad,Pcbnew,8.0.1+b2*%
%TF.CreationDate,2025-07-27T15:44:50+02:00*%
%TF.ProjectId,Hackpad,4861636b-7061-4642-9e6b-696361645f70,rev?*%
%TF.SameCoordinates,Original*%
%TF.FileFunction,Copper,L2,Bot*%
%TF.FilePolarity,Positive*%
%FSLAX46Y46*%
G04 Gerber Fmt 4.6, Leading zero omitted, Abs format (unit mm)*
G04 Created by KiCad (PCBNEW 8.0.1+b2) date 2025-07-27 15:44:50*
%MOMM*%
%LPD*%
G01*
G04 APERTURE LIST*
%TA.AperFunction,ComponentPad*%
%ADD10C,2.200000*%
%TD*%
%TA.AperFunction,ComponentPad*%
%ADD11C,1.524000*%
%TD*%
%TA.AperFunction,Conductor*%
%ADD12C,0.200000*%
%TD*%
G04 APERTURE END LIST*
D10*
%TO.P,SW3,1,1*%
%TO.N,Net-(U1-GPIO4{slash}MISO)*%
X81121250Y-106838750D03*
%TO.P,SW3,2,2*%
%TO.N,GND*%
X74771250Y-109378750D03*
%TD*%
%TO.P,SW1,1,1*%
%TO.N,Net-(U1-GPIO1{slash}RX)*%
X100171250Y-68738750D03*
%TO.P,SW1,2,2*%
%TO.N,GND*%
X93821250Y-71278750D03*
%TD*%
%TO.P,SW10,1,1*%
%TO.N,Net-(U1-GPIO27{slash}ADC1{slash}A1)*%
X81121250Y-68738750D03*
%TO.P,SW10,2,2*%
%TO.N,GND*%
X74771250Y-71278750D03*
%TD*%
%TO.P,SW4,1,1*%
%TO.N,Net-(U1-GPIO3{slash}MOSI)*%
X100171250Y-106838750D03*
%TO.P,SW4,2,2*%
%TO.N,GND*%
X93821250Y-109378750D03*
%TD*%
%TO.P,SW7,1,1*%
%TO.N,Net-(U1-GPIO29{slash}ADC3{slash}A3)*%
X62071250Y-106838750D03*
%TO.P,SW7,2,2*%
%TO.N,GND*%
X55721250Y-109378750D03*
%TD*%
%TO.P,SW8,1,1*%
%TO.N,Net-(U1-GPIO7{slash}SCL)*%
X62071250Y-87788750D03*
%TO.P,SW8,2,2*%
%TO.N,GND*%
X55721250Y-90328750D03*
%TD*%
%TO.P,SW2,1,1*%
%TO.N,Net-(U1-GPIO2{slash}SCK)*%
X100171250Y-87788750D03*
%TO.P,SW2,2,2*%
%TO.N,GND*%
X93821250Y-90328750D03*
%TD*%
D11*
%TO.P,U1,1,GPIO26/ADC0/A0*%
%TO.N,unconnected-(U1-GPIO26{slash}ADC0{slash}A0-Pad1)*%
X54292500Y-44767500D03*
%TO.P,U1,2,GPIO27/ADC1/A1*%
%TO.N,Net-(U1-GPIO27{slash}ADC1{slash}A1)*%
X54292500Y-47307500D03*
%TO.P,U1,3,GPIO28/ADC2/A2*%
%TO.N,Net-(U1-GPIO28{slash}ADC2{slash}A2)*%
X54292500Y-49847500D03*
%TO.P,U1,4,GPIO29/ADC3/A3*%
%TO.N,Net-(U1-GPIO29{slash}ADC3{slash}A3)*%
X54292500Y-52387500D03*
%TO.P,U1,5,GPIO6/SDA*%
%TO.N,Net-(D1-DIN)*%
X54292500Y-54927500D03*
%TO.P,U1,6,GPIO7/SCL*%
%TO.N,Net-(U1-GPIO7{slash}SCL)*%
X54292500Y-57467500D03*
%TO.P,U1,7,GPIO0/TX*%
%TO.N,Net-(U1-GPIO0{slash}TX)*%
X54292500Y-60007500D03*
%TO.P,U1,8,GPIO1/RX*%
%TO.N,Net-(U1-GPIO1{slash}RX)*%
X69532500Y-60007500D03*
%TO.P,U1,9,GPIO2/SCK*%
%TO.N,Net-(U1-GPIO2{slash}SCK)*%
X69532500Y-57467500D03*
%TO.P,U1,10,GPIO4/MISO*%
%TO.N,Net-(U1-GPIO4{slash}MISO)*%
X69532500Y-54927500D03*
%TO.P,U1,11,GPIO3/MOSI*%
%TO.N,Net-(U1-GPIO3{slash}MOSI)*%
X69532500Y-52387500D03*
%TO.P,U1,12,3V3*%
%TO.N,unconnected-(U1-3V3-Pad12)*%
X69532500Y-49847500D03*
%TO.P,U1,13,GND*%
%TO.N,GND*%
X69532500Y-47307500D03*
%TO.P,U1,14,VBUS*%
%TO.N,+5V*%
X69532500Y-44767500D03*
%TD*%
D10*
%TO.P,SW9,1,1*%
%TO.N,Net-(U1-GPIO0{slash}TX)*%
X62071250Y-68738750D03*
%TO.P,SW9,2,2*%
%TO.N,GND*%
X55721250Y-71278750D03*
%TD*%
%TO.P,SW6,1,1*%
%TO.N,Net-(U1-GPIO28{slash}ADC2{slash}A2)*%
X81121250Y-87788750D03*
%TO.P,SW6,2,2*%
%TO.N,GND*%
X74771250Y-90328750D03*
%TD*%
D12*
%TO.N,Net-(U1-GPIO1{slash}RX)*%
X70594500Y-56307000D02*
X70594500Y-58945500D01*
X85298000Y-53865500D02*
X69092605Y-53865500D01*
X100171250Y-68738750D02*
X85298000Y-53865500D01*
X68470500Y-54487605D02*
X68470500Y-55367395D01*
X68470500Y-55367395D02*
X69092605Y-55989500D01*
X70594500Y-58945500D02*
X69532500Y-60007500D01*
X70277000Y-55989500D02*
X70594500Y-56307000D01*
X69092605Y-53865500D02*
X68470500Y-54487605D01*
X69092605Y-55989500D02*
X70277000Y-55989500D01*
%TO.N,Net-(U1-GPIO2{slash}SCK)*%
X101571250Y-68158851D02*
X100751149Y-67338750D01*
X68926919Y-53465500D02*
X68070500Y-54321920D01*
X100171250Y-87788750D02*
X100171250Y-70718649D01*
X100171250Y-70718649D02*
X101571250Y-69318649D01*
X99336935Y-67338750D02*
X85463685Y-53465500D01*
X85463685Y-53465500D02*
X68926919Y-53465500D01*
X68070500Y-56005500D02*
X69532500Y-57467500D01*
X101571250Y-69318649D02*
X101571250Y-68158851D01*
X68070500Y-54321920D02*
X68070500Y-56005500D01*
X100751149Y-67338750D02*
X99336935Y-67338750D01*
%TO.N,Net-(U1-GPIO4{slash}MISO)*%
X80541351Y-67338750D02*
X79721250Y-68158851D01*
X77683851Y-68158851D02*
X70994500Y-61469500D01*
X85725000Y-71362601D02*
X81701149Y-67338750D01*
X81121250Y-106838750D02*
X85725000Y-102235000D01*
X70994500Y-61469500D02*
X70994500Y-56141314D01*
X85725000Y-102235000D02*
X85725000Y-71362601D01*
X69780686Y-54927500D02*
X69532500Y-54927500D01*
X70994500Y-56141314D02*
X69780686Y-54927500D01*
X79721250Y-68158851D02*
X77683851Y-68158851D01*
X81701149Y-67338750D02*
X80541351Y-67338750D01*
%TO.N,Net-(U1-GPIO3{slash}MOSI)*%
X70210500Y-53065500D02*
X69532500Y-52387500D01*
X99502621Y-66938750D02*
X85629370Y-53065500D01*
X100171250Y-89768649D02*
X101571250Y-88368649D01*
X100171250Y-106838750D02*
X100171250Y-89768649D01*
X85629370Y-53065500D02*
X70210500Y-53065500D01*
X100571250Y-86208851D02*
X100571250Y-70884335D01*
X100571250Y-70884335D02*
X101971250Y-69484334D01*
X101571250Y-87208851D02*
X100571250Y-86208851D01*
X101971250Y-67993165D02*
X100916834Y-66938750D01*
X100916834Y-66938750D02*
X99502621Y-66938750D01*
X101571250Y-88368649D02*
X101571250Y-87208851D01*
X101971250Y-69484334D02*
X101971250Y-67993165D01*
%TO.N,Net-(U1-GPIO28{slash}ADC2{slash}A2)*%
X72301250Y-67856250D02*
X54292500Y-49847500D01*
X72301250Y-78968750D02*
X72301250Y-67856250D01*
X81121250Y-87788750D02*
X72301250Y-78968750D01*
%TO.N,Net-(U1-GPIO29{slash}ADC3{slash}A3)*%
X52830500Y-97598000D02*
X52830500Y-53849500D01*
X62071250Y-106838750D02*
X52830500Y-97598000D01*
X52830500Y-53849500D02*
X54292500Y-52387500D01*
%TO.N,Net-(U1-GPIO7{slash}SCL)*%
X53230500Y-78948000D02*
X53230500Y-58529500D01*
X62071250Y-87788750D02*
X53230500Y-78948000D01*
X53230500Y-58529500D02*
X54292500Y-57467500D01*
%TO.N,Net-(U1-GPIO0{slash}TX)*%
X62071250Y-67786250D02*
X54292500Y-60007500D01*
X62071250Y-68738750D02*
X62071250Y-67786250D01*
%TO.N,Net-(U1-GPIO27{slash}ADC1{slash}A1)*%
X55354500Y-48369500D02*
X54292500Y-47307500D01*
X73321351Y-68558851D02*
X72701250Y-67938750D01*
X72701250Y-67938750D02*
X72701250Y-67690564D01*
X72701250Y-67690564D02*
X55354500Y-50343814D01*
X81121250Y-68738750D02*
X80414143Y-68031643D01*
X80414143Y-68031643D02*
X79886935Y-68558851D01*
X79886935Y-68558851D02*
X73321351Y-68558851D01*
X55354500Y-50343814D02*
X55354500Y-48369500D01*
%TD*%
M02*
