%TF.GenerationSoftware,KiCad,Pcbnew,8.0.1+b2*%
%TF.CreationDate,2025-07-27T15:44:50+02:00*%
%TF.ProjectId,Hackpad,4861636b-7061-4642-9e6b-696361645f70,rev?*%
%TF.SameCoordinates,Original*%
%TF.FileFunction,Copper,L1,Top*%
%TF.FilePolarity,Positive*%
%FSLAX46Y46*%
G04 Gerber Fmt 4.6, Leading zero omitted, Abs format (unit mm)*
G04 Created by KiCad (PCBNEW 8.0.1+b2) date 2025-07-27 15:44:50*
%MOMM*%
%LPD*%
G01*
G04 APERTURE LIST*
G04 Aperture macros list*
%AMRoundRect*
0 Rectangle with rounded corners*
0 $1 Rounding radius*
0 $2 $3 $4 $5 $6 $7 $8 $9 X,Y pos of 4 corners*
0 Add a 4 corners polygon primitive as box body*
4,1,4,$2,$3,$4,$5,$6,$7,$8,$9,$2,$3,0*
0 Add four circle primitives for the rounded corners*
1,1,$1+$1,$2,$3*
1,1,$1+$1,$4,$5*
1,1,$1+$1,$6,$7*
1,1,$1+$1,$8,$9*
0 Add four rect primitives between the rounded corners*
20,1,$1+$1,$2,$3,$4,$5,0*
20,1,$1+$1,$4,$5,$6,$7,0*
20,1,$1+$1,$6,$7,$8,$9,0*
20,1,$1+$1,$8,$9,$2,$3,0*%
G04 Aperture macros list end*
%TA.AperFunction,ComponentPad*%
%ADD10C,2.200000*%
%TD*%
%TA.AperFunction,SMDPad,CuDef*%
%ADD11R,1.600000X0.850000*%
%TD*%
%TA.AperFunction,SMDPad,CuDef*%
%ADD12RoundRect,0.152400X1.063600X0.609600X-1.063600X0.609600X-1.063600X-0.609600X1.063600X-0.609600X0*%
%TD*%
%TA.AperFunction,ComponentPad*%
%ADD13C,1.524000*%
%TD*%
%TA.AperFunction,SMDPad,CuDef*%
%ADD14RoundRect,0.152400X-1.063600X-0.609600X1.063600X-0.609600X1.063600X0.609600X-1.063600X0.609600X0*%
%TD*%
%TA.AperFunction,Conductor*%
%ADD15C,0.200000*%
%TD*%
G04 APERTURE END LIST*
D10*
%TO.P,SW3,1,1*%
%TO.N,Net-(U1-GPIO4{slash}MISO)*%
X81121250Y-106838750D03*
%TO.P,SW3,2,2*%
%TO.N,GND*%
X74771250Y-109378750D03*
%TD*%
%TO.P,SW1,1,1*%
%TO.N,Net-(U1-GPIO1{slash}RX)*%
X100171250Y-68738750D03*
%TO.P,SW1,2,2*%
%TO.N,GND*%
X93821250Y-71278750D03*
%TD*%
%TO.P,SW10,1,1*%
%TO.N,Net-(U1-GPIO27{slash}ADC1{slash}A1)*%
X81121250Y-68738750D03*
%TO.P,SW10,2,2*%
%TO.N,GND*%
X74771250Y-71278750D03*
%TD*%
D11*
%TO.P,D1,1,DOUT*%
%TO.N,Net-(D1-DOUT)*%
X80962500Y-51512500D03*
%TO.P,D1,2,VSS*%
%TO.N,GND*%
X80962500Y-53262500D03*
%TO.P,D1,3,DIN*%
%TO.N,Net-(D1-DIN)*%
X84462500Y-53262500D03*
%TO.P,D1,4,VDD*%
%TO.N,+5V*%
X84462500Y-51512500D03*
%TD*%
D10*
%TO.P,SW4,1,1*%
%TO.N,Net-(U1-GPIO3{slash}MOSI)*%
X100171250Y-106838750D03*
%TO.P,SW4,2,2*%
%TO.N,GND*%
X93821250Y-109378750D03*
%TD*%
D11*
%TO.P,D2,1,DOUT*%
%TO.N,unconnected-(D2-DOUT-Pad1)*%
X90487500Y-51512500D03*
%TO.P,D2,2,VSS*%
%TO.N,GND*%
X90487500Y-53262500D03*
%TO.P,D2,3,DIN*%
%TO.N,Net-(D1-DOUT)*%
X93987500Y-53262500D03*
%TO.P,D2,4,VDD*%
%TO.N,+5V*%
X93987500Y-51512500D03*
%TD*%
D10*
%TO.P,SW7,1,1*%
%TO.N,Net-(U1-GPIO29{slash}ADC3{slash}A3)*%
X62071250Y-106838750D03*
%TO.P,SW7,2,2*%
%TO.N,GND*%
X55721250Y-109378750D03*
%TD*%
%TO.P,SW8,1,1*%
%TO.N,Net-(U1-GPIO7{slash}SCL)*%
X62071250Y-87788750D03*
%TO.P,SW8,2,2*%
%TO.N,GND*%
X55721250Y-90328750D03*
%TD*%
%TO.P,SW2,1,1*%
%TO.N,Net-(U1-GPIO2{slash}SCK)*%
X100171250Y-87788750D03*
%TO.P,SW2,2,2*%
%TO.N,GND*%
X93821250Y-90328750D03*
%TD*%
D12*
%TO.P,U1,1,GPIO26/ADC0/A0*%
%TO.N,unconnected-(U1-GPIO26{slash}ADC0{slash}A0-Pad1)*%
X53457500Y-44767500D03*
D13*
X54292500Y-44767500D03*
D12*
%TO.P,U1,2,GPIO27/ADC1/A1*%
%TO.N,Net-(U1-GPIO27{slash}ADC1{slash}A1)*%
X53457500Y-47307500D03*
D13*
X54292500Y-47307500D03*
D12*
%TO.P,U1,3,GPIO28/ADC2/A2*%
%TO.N,Net-(U1-GPIO28{slash}ADC2{slash}A2)*%
X53457500Y-49847500D03*
D13*
X54292500Y-49847500D03*
D12*
%TO.P,U1,4,GPIO29/ADC3/A3*%
%TO.N,Net-(U1-GPIO29{slash}ADC3{slash}A3)*%
X53457500Y-52387500D03*
D13*
X54292500Y-52387500D03*
D12*
%TO.P,U1,5,GPIO6/SDA*%
%TO.N,Net-(D1-DIN)*%
X53457500Y-54927500D03*
D13*
X54292500Y-54927500D03*
D12*
%TO.P,U1,6,GPIO7/SCL*%
%TO.N,Net-(U1-GPIO7{slash}SCL)*%
X53457500Y-57467500D03*
D13*
X54292500Y-57467500D03*
D12*
%TO.P,U1,7,GPIO0/TX*%
%TO.N,Net-(U1-GPIO0{slash}TX)*%
X53457500Y-60007500D03*
D13*
X54292500Y-60007500D03*
%TO.P,U1,8,GPIO1/RX*%
%TO.N,Net-(U1-GPIO1{slash}RX)*%
X69532500Y-60007500D03*
D14*
X70367500Y-60007500D03*
D13*
%TO.P,U1,9,GPIO2/SCK*%
%TO.N,Net-(U1-GPIO2{slash}SCK)*%
X69532500Y-57467500D03*
D14*
X70367500Y-57467500D03*
D13*
%TO.P,U1,10,GPIO4/MISO*%
%TO.N,Net-(U1-GPIO4{slash}MISO)*%
X69532500Y-54927500D03*
D14*
X70367500Y-54927500D03*
D13*
%TO.P,U1,11,GPIO3/MOSI*%
%TO.N,Net-(U1-GPIO3{slash}MOSI)*%
X69532500Y-52387500D03*
D14*
X70367500Y-52387500D03*
D13*
%TO.P,U1,12,3V3*%
%TO.N,unconnected-(U1-3V3-Pad12)*%
X69532500Y-49847500D03*
D14*
X70367500Y-49847500D03*
D13*
%TO.P,U1,13,GND*%
%TO.N,GND*%
X69532500Y-47307500D03*
D14*
X70367500Y-47307500D03*
D13*
%TO.P,U1,14,VBUS*%
%TO.N,+5V*%
X69532500Y-44767500D03*
D14*
X70367500Y-44767500D03*
%TD*%
D10*
%TO.P,SW9,1,1*%
%TO.N,Net-(U1-GPIO0{slash}TX)*%
X62071250Y-68738750D03*
%TO.P,SW9,2,2*%
%TO.N,GND*%
X55721250Y-71278750D03*
%TD*%
%TO.P,SW6,1,1*%
%TO.N,Net-(U1-GPIO28{slash}ADC2{slash}A2)*%
X81121250Y-87788750D03*
%TO.P,SW6,2,2*%
%TO.N,GND*%
X74771250Y-90328750D03*
%TD*%
D15*
%TO.N,Net-(D1-DOUT)*%
X69092605Y-43705500D02*
X68470500Y-44327605D01*
X75279500Y-45829500D02*
X80962500Y-51512500D01*
X95087500Y-52162500D02*
X95087500Y-50787500D01*
X68470500Y-45207395D02*
X69092605Y-45829500D01*
X68470500Y-44327605D02*
X68470500Y-45207395D01*
X88005500Y-43705500D02*
X69092605Y-43705500D01*
X93987500Y-53262500D02*
X95087500Y-52162500D01*
X69092605Y-45829500D02*
X75279500Y-45829500D01*
X95087500Y-50787500D02*
X88005500Y-43705500D01*
%TO.N,+5V*%
X69532500Y-44767500D02*
X70194500Y-44105500D01*
X74783186Y-44767500D02*
X69532500Y-44767500D01*
X80803186Y-50787500D02*
X74783186Y-44767500D01*
X85187500Y-50787500D02*
X84462500Y-51512500D01*
X93262500Y-50787500D02*
X85187500Y-50787500D01*
X84462500Y-51512500D02*
X82062500Y-51512500D01*
X82062500Y-50787500D02*
X80803186Y-50787500D01*
X93987500Y-51512500D02*
X93262500Y-50787500D01*
X82062500Y-51512500D02*
X82062500Y-50787500D01*
%TO.N,Net-(D1-DIN)*%
X81319500Y-56405500D02*
X55770500Y-56405500D01*
X54610000Y-54927500D02*
X54292500Y-54927500D01*
X84462500Y-53262500D02*
X81319500Y-56405500D01*
X55770500Y-56405500D02*
X54292500Y-54927500D01*
%TO.N,GND*%
X81687500Y-52537500D02*
X89762500Y-52537500D01*
X74771250Y-109378750D02*
X74771250Y-71278750D01*
X80962500Y-53262500D02*
X79862500Y-52162500D01*
X89762500Y-52537500D02*
X90487500Y-53262500D01*
X93821250Y-109378750D02*
X93821250Y-71278750D01*
X80962500Y-53262500D02*
X81687500Y-52537500D01*
X79862500Y-51287500D02*
X75882500Y-47307500D01*
X90487500Y-67945000D02*
X93821250Y-71278750D01*
X79862500Y-52162500D02*
X79862500Y-51287500D01*
X55721250Y-90328750D02*
X55721250Y-71278750D01*
X93821250Y-71278750D02*
X55721250Y-71278750D01*
X75882500Y-47307500D02*
X69532500Y-47307500D01*
X90487500Y-53262500D02*
X90487500Y-67945000D01*
X55721250Y-109378750D02*
X55721250Y-90328750D01*
%TD*%
M02*
