%TF.GenerationSoftware,KiCad,Pcbnew,8.0.1+b2*%
%TF.CreationDate,2025-07-27T15:44:50+02:00*%
%TF.ProjectId,Hackpad,4861636b-7061-4642-9e6b-696361645f70,rev?*%
%TF.SameCoordinates,Original*%
%TF.FileFunction,Legend,Top*%
%TF.FilePolarity,Positive*%
%FSLAX46Y46*%
G04 Gerber Fmt 4.6, Leading zero omitted, Abs format (unit mm)*
G04 Created by KiCad (PCBNEW 8.0.1+b2) date 2025-07-27 15:44:50*
%MOMM*%
%LPD*%
G01*
G04 APERTURE LIST*
%ADD10C,0.200000*%
%ADD11C,0.100000*%
%ADD12C,0.150000*%
%ADD13C,0.101600*%
%ADD14C,0.120000*%
%ADD15C,0.127000*%
%ADD16C,0.504000*%
G04 APERTURE END LIST*
D10*
X96191101Y-45787036D02*
X96143482Y-45834656D01*
X96143482Y-45834656D02*
X96000625Y-45882275D01*
X96000625Y-45882275D02*
X95905387Y-45882275D01*
X95905387Y-45882275D02*
X95762530Y-45834656D01*
X95762530Y-45834656D02*
X95667292Y-45739417D01*
X95667292Y-45739417D02*
X95619673Y-45644179D01*
X95619673Y-45644179D02*
X95572054Y-45453703D01*
X95572054Y-45453703D02*
X95572054Y-45310846D01*
X95572054Y-45310846D02*
X95619673Y-45120370D01*
X95619673Y-45120370D02*
X95667292Y-45025132D01*
X95667292Y-45025132D02*
X95762530Y-44929894D01*
X95762530Y-44929894D02*
X95905387Y-44882275D01*
X95905387Y-44882275D02*
X96000625Y-44882275D01*
X96000625Y-44882275D02*
X96143482Y-44929894D01*
X96143482Y-44929894D02*
X96191101Y-44977513D01*
X97048244Y-45882275D02*
X97048244Y-45358465D01*
X97048244Y-45358465D02*
X97000625Y-45263227D01*
X97000625Y-45263227D02*
X96905387Y-45215608D01*
X96905387Y-45215608D02*
X96714911Y-45215608D01*
X96714911Y-45215608D02*
X96619673Y-45263227D01*
X97048244Y-45834656D02*
X96953006Y-45882275D01*
X96953006Y-45882275D02*
X96714911Y-45882275D01*
X96714911Y-45882275D02*
X96619673Y-45834656D01*
X96619673Y-45834656D02*
X96572054Y-45739417D01*
X96572054Y-45739417D02*
X96572054Y-45644179D01*
X96572054Y-45644179D02*
X96619673Y-45548941D01*
X96619673Y-45548941D02*
X96714911Y-45501322D01*
X96714911Y-45501322D02*
X96953006Y-45501322D01*
X96953006Y-45501322D02*
X97048244Y-45453703D01*
X97524435Y-45215608D02*
X97524435Y-46215608D01*
X97524435Y-45263227D02*
X97619673Y-45215608D01*
X97619673Y-45215608D02*
X97810149Y-45215608D01*
X97810149Y-45215608D02*
X97905387Y-45263227D01*
X97905387Y-45263227D02*
X97953006Y-45310846D01*
X97953006Y-45310846D02*
X98000625Y-45406084D01*
X98000625Y-45406084D02*
X98000625Y-45691798D01*
X98000625Y-45691798D02*
X97953006Y-45787036D01*
X97953006Y-45787036D02*
X97905387Y-45834656D01*
X97905387Y-45834656D02*
X97810149Y-45882275D01*
X97810149Y-45882275D02*
X97619673Y-45882275D01*
X97619673Y-45882275D02*
X97524435Y-45834656D01*
X98429197Y-45215608D02*
X98429197Y-46215608D01*
X98429197Y-45263227D02*
X98524435Y-45215608D01*
X98524435Y-45215608D02*
X98714911Y-45215608D01*
X98714911Y-45215608D02*
X98810149Y-45263227D01*
X98810149Y-45263227D02*
X98857768Y-45310846D01*
X98857768Y-45310846D02*
X98905387Y-45406084D01*
X98905387Y-45406084D02*
X98905387Y-45691798D01*
X98905387Y-45691798D02*
X98857768Y-45787036D01*
X98857768Y-45787036D02*
X98810149Y-45834656D01*
X98810149Y-45834656D02*
X98714911Y-45882275D01*
X98714911Y-45882275D02*
X98524435Y-45882275D01*
X98524435Y-45882275D02*
X98429197Y-45834656D01*
X99762530Y-45215608D02*
X99762530Y-45882275D01*
X99333959Y-45215608D02*
X99333959Y-45739417D01*
X99333959Y-45739417D02*
X99381578Y-45834656D01*
X99381578Y-45834656D02*
X99476816Y-45882275D01*
X99476816Y-45882275D02*
X99619673Y-45882275D01*
X99619673Y-45882275D02*
X99714911Y-45834656D01*
X99714911Y-45834656D02*
X99762530Y-45787036D01*
X100095864Y-45215608D02*
X100476816Y-45215608D01*
X100238721Y-44882275D02*
X100238721Y-45739417D01*
X100238721Y-45739417D02*
X100286340Y-45834656D01*
X100286340Y-45834656D02*
X100381578Y-45882275D01*
X100381578Y-45882275D02*
X100476816Y-45882275D01*
X100810150Y-45882275D02*
X100810150Y-45215608D01*
X100810150Y-44882275D02*
X100762531Y-44929894D01*
X100762531Y-44929894D02*
X100810150Y-44977513D01*
X100810150Y-44977513D02*
X100857769Y-44929894D01*
X100857769Y-44929894D02*
X100810150Y-44882275D01*
X100810150Y-44882275D02*
X100810150Y-44977513D01*
X101286340Y-45215608D02*
X101286340Y-45882275D01*
X101286340Y-45310846D02*
X101333959Y-45263227D01*
X101333959Y-45263227D02*
X101429197Y-45215608D01*
X101429197Y-45215608D02*
X101572054Y-45215608D01*
X101572054Y-45215608D02*
X101667292Y-45263227D01*
X101667292Y-45263227D02*
X101714911Y-45358465D01*
X101714911Y-45358465D02*
X101714911Y-45882275D01*
X102333959Y-45882275D02*
X102238721Y-45834656D01*
X102238721Y-45834656D02*
X102191102Y-45787036D01*
X102191102Y-45787036D02*
X102143483Y-45691798D01*
X102143483Y-45691798D02*
X102143483Y-45406084D01*
X102143483Y-45406084D02*
X102191102Y-45310846D01*
X102191102Y-45310846D02*
X102238721Y-45263227D01*
X102238721Y-45263227D02*
X102333959Y-45215608D01*
X102333959Y-45215608D02*
X102476816Y-45215608D01*
X102476816Y-45215608D02*
X102572054Y-45263227D01*
X102572054Y-45263227D02*
X102619673Y-45310846D01*
X102619673Y-45310846D02*
X102667292Y-45406084D01*
X102667292Y-45406084D02*
X102667292Y-45691798D01*
X102667292Y-45691798D02*
X102619673Y-45787036D01*
X102619673Y-45787036D02*
X102572054Y-45834656D01*
X102572054Y-45834656D02*
X102476816Y-45882275D01*
X102476816Y-45882275D02*
X102333959Y-45882275D01*
X103048245Y-45834656D02*
X103143483Y-45882275D01*
X103143483Y-45882275D02*
X103333959Y-45882275D01*
X103333959Y-45882275D02*
X103429197Y-45834656D01*
X103429197Y-45834656D02*
X103476816Y-45739417D01*
X103476816Y-45739417D02*
X103476816Y-45691798D01*
X103476816Y-45691798D02*
X103429197Y-45596560D01*
X103429197Y-45596560D02*
X103333959Y-45548941D01*
X103333959Y-45548941D02*
X103191102Y-45548941D01*
X103191102Y-45548941D02*
X103095864Y-45501322D01*
X103095864Y-45501322D02*
X103048245Y-45406084D01*
X103048245Y-45406084D02*
X103048245Y-45358465D01*
X103048245Y-45358465D02*
X103095864Y-45263227D01*
X103095864Y-45263227D02*
X103191102Y-45215608D01*
X103191102Y-45215608D02*
X103333959Y-45215608D01*
X103333959Y-45215608D02*
X103429197Y-45263227D01*
X95476816Y-46492219D02*
X96048244Y-46492219D01*
X95762530Y-47492219D02*
X95762530Y-46492219D01*
X96762530Y-47444600D02*
X96667292Y-47492219D01*
X96667292Y-47492219D02*
X96476816Y-47492219D01*
X96476816Y-47492219D02*
X96381578Y-47444600D01*
X96381578Y-47444600D02*
X96333959Y-47349361D01*
X96333959Y-47349361D02*
X96333959Y-46968409D01*
X96333959Y-46968409D02*
X96381578Y-46873171D01*
X96381578Y-46873171D02*
X96476816Y-46825552D01*
X96476816Y-46825552D02*
X96667292Y-46825552D01*
X96667292Y-46825552D02*
X96762530Y-46873171D01*
X96762530Y-46873171D02*
X96810149Y-46968409D01*
X96810149Y-46968409D02*
X96810149Y-47063647D01*
X96810149Y-47063647D02*
X96333959Y-47158885D01*
X97667292Y-47492219D02*
X97667292Y-46968409D01*
X97667292Y-46968409D02*
X97619673Y-46873171D01*
X97619673Y-46873171D02*
X97524435Y-46825552D01*
X97524435Y-46825552D02*
X97333959Y-46825552D01*
X97333959Y-46825552D02*
X97238721Y-46873171D01*
X97667292Y-47444600D02*
X97572054Y-47492219D01*
X97572054Y-47492219D02*
X97333959Y-47492219D01*
X97333959Y-47492219D02*
X97238721Y-47444600D01*
X97238721Y-47444600D02*
X97191102Y-47349361D01*
X97191102Y-47349361D02*
X97191102Y-47254123D01*
X97191102Y-47254123D02*
X97238721Y-47158885D01*
X97238721Y-47158885D02*
X97333959Y-47111266D01*
X97333959Y-47111266D02*
X97572054Y-47111266D01*
X97572054Y-47111266D02*
X97667292Y-47063647D01*
X98143483Y-47492219D02*
X98143483Y-46492219D01*
X98143483Y-46492219D02*
X98524435Y-46492219D01*
X98524435Y-46492219D02*
X98619673Y-46539838D01*
X98619673Y-46539838D02*
X98667292Y-46587457D01*
X98667292Y-46587457D02*
X98714911Y-46682695D01*
X98714911Y-46682695D02*
X98714911Y-46825552D01*
X98714911Y-46825552D02*
X98667292Y-46920790D01*
X98667292Y-46920790D02*
X98619673Y-46968409D01*
X98619673Y-46968409D02*
X98524435Y-47016028D01*
X98524435Y-47016028D02*
X98143483Y-47016028D01*
X99572054Y-47492219D02*
X99572054Y-46968409D01*
X99572054Y-46968409D02*
X99524435Y-46873171D01*
X99524435Y-46873171D02*
X99429197Y-46825552D01*
X99429197Y-46825552D02*
X99238721Y-46825552D01*
X99238721Y-46825552D02*
X99143483Y-46873171D01*
X99572054Y-47444600D02*
X99476816Y-47492219D01*
X99476816Y-47492219D02*
X99238721Y-47492219D01*
X99238721Y-47492219D02*
X99143483Y-47444600D01*
X99143483Y-47444600D02*
X99095864Y-47349361D01*
X99095864Y-47349361D02*
X99095864Y-47254123D01*
X99095864Y-47254123D02*
X99143483Y-47158885D01*
X99143483Y-47158885D02*
X99238721Y-47111266D01*
X99238721Y-47111266D02*
X99476816Y-47111266D01*
X99476816Y-47111266D02*
X99572054Y-47063647D01*
X100476816Y-47492219D02*
X100476816Y-46492219D01*
X100476816Y-47444600D02*
X100381578Y-47492219D01*
X100381578Y-47492219D02*
X100191102Y-47492219D01*
X100191102Y-47492219D02*
X100095864Y-47444600D01*
X100095864Y-47444600D02*
X100048245Y-47396980D01*
X100048245Y-47396980D02*
X100000626Y-47301742D01*
X100000626Y-47301742D02*
X100000626Y-47016028D01*
X100000626Y-47016028D02*
X100048245Y-46920790D01*
X100048245Y-46920790D02*
X100095864Y-46873171D01*
X100095864Y-46873171D02*
X100191102Y-46825552D01*
X100191102Y-46825552D02*
X100381578Y-46825552D01*
X100381578Y-46825552D02*
X100476816Y-46873171D01*
D11*
X57969222Y-50518504D02*
X58635888Y-51518504D01*
X58635888Y-50518504D02*
X57969222Y-51518504D01*
X59016841Y-51518504D02*
X59016841Y-50518504D01*
X59445412Y-51232789D02*
X59921602Y-51232789D01*
X59350174Y-51518504D02*
X59683507Y-50518504D01*
X59683507Y-50518504D02*
X60016840Y-51518504D01*
X60540650Y-50518504D02*
X60731126Y-50518504D01*
X60731126Y-50518504D02*
X60826364Y-50566123D01*
X60826364Y-50566123D02*
X60921602Y-50661361D01*
X60921602Y-50661361D02*
X60969221Y-50851837D01*
X60969221Y-50851837D02*
X60969221Y-51185170D01*
X60969221Y-51185170D02*
X60921602Y-51375646D01*
X60921602Y-51375646D02*
X60826364Y-51470885D01*
X60826364Y-51470885D02*
X60731126Y-51518504D01*
X60731126Y-51518504D02*
X60540650Y-51518504D01*
X60540650Y-51518504D02*
X60445412Y-51470885D01*
X60445412Y-51470885D02*
X60350174Y-51375646D01*
X60350174Y-51375646D02*
X60302555Y-51185170D01*
X60302555Y-51185170D02*
X60302555Y-50851837D01*
X60302555Y-50851837D02*
X60350174Y-50661361D01*
X60350174Y-50661361D02*
X60445412Y-50566123D01*
X60445412Y-50566123D02*
X60540650Y-50518504D01*
X62159698Y-51518504D02*
X62159698Y-50518504D01*
X62159698Y-50994694D02*
X62731126Y-50994694D01*
X62731126Y-51518504D02*
X62731126Y-50518504D01*
X63207317Y-50994694D02*
X63540650Y-50994694D01*
X63683507Y-51518504D02*
X63207317Y-51518504D01*
X63207317Y-51518504D02*
X63207317Y-50518504D01*
X63207317Y-50518504D02*
X63683507Y-50518504D01*
X64683507Y-51518504D02*
X64350174Y-51042313D01*
X64112079Y-51518504D02*
X64112079Y-50518504D01*
X64112079Y-50518504D02*
X64493031Y-50518504D01*
X64493031Y-50518504D02*
X64588269Y-50566123D01*
X64588269Y-50566123D02*
X64635888Y-50613742D01*
X64635888Y-50613742D02*
X64683507Y-50708980D01*
X64683507Y-50708980D02*
X64683507Y-50851837D01*
X64683507Y-50851837D02*
X64635888Y-50947075D01*
X64635888Y-50947075D02*
X64588269Y-50994694D01*
X64588269Y-50994694D02*
X64493031Y-51042313D01*
X64493031Y-51042313D02*
X64112079Y-51042313D01*
X65112079Y-50994694D02*
X65445412Y-50994694D01*
X65588269Y-51518504D02*
X65112079Y-51518504D01*
X65112079Y-51518504D02*
X65112079Y-50518504D01*
X65112079Y-50518504D02*
X65588269Y-50518504D01*
D12*
X77247917Y-104451950D02*
X77390774Y-104499569D01*
X77390774Y-104499569D02*
X77628869Y-104499569D01*
X77628869Y-104499569D02*
X77724107Y-104451950D01*
X77724107Y-104451950D02*
X77771726Y-104404330D01*
X77771726Y-104404330D02*
X77819345Y-104309092D01*
X77819345Y-104309092D02*
X77819345Y-104213854D01*
X77819345Y-104213854D02*
X77771726Y-104118616D01*
X77771726Y-104118616D02*
X77724107Y-104070997D01*
X77724107Y-104070997D02*
X77628869Y-104023378D01*
X77628869Y-104023378D02*
X77438393Y-103975759D01*
X77438393Y-103975759D02*
X77343155Y-103928140D01*
X77343155Y-103928140D02*
X77295536Y-103880521D01*
X77295536Y-103880521D02*
X77247917Y-103785283D01*
X77247917Y-103785283D02*
X77247917Y-103690045D01*
X77247917Y-103690045D02*
X77295536Y-103594807D01*
X77295536Y-103594807D02*
X77343155Y-103547188D01*
X77343155Y-103547188D02*
X77438393Y-103499569D01*
X77438393Y-103499569D02*
X77676488Y-103499569D01*
X77676488Y-103499569D02*
X77819345Y-103547188D01*
X78152679Y-103499569D02*
X78390774Y-104499569D01*
X78390774Y-104499569D02*
X78581250Y-103785283D01*
X78581250Y-103785283D02*
X78771726Y-104499569D01*
X78771726Y-104499569D02*
X79009822Y-103499569D01*
X79295536Y-103499569D02*
X79914583Y-103499569D01*
X79914583Y-103499569D02*
X79581250Y-103880521D01*
X79581250Y-103880521D02*
X79724107Y-103880521D01*
X79724107Y-103880521D02*
X79819345Y-103928140D01*
X79819345Y-103928140D02*
X79866964Y-103975759D01*
X79866964Y-103975759D02*
X79914583Y-104070997D01*
X79914583Y-104070997D02*
X79914583Y-104309092D01*
X79914583Y-104309092D02*
X79866964Y-104404330D01*
X79866964Y-104404330D02*
X79819345Y-104451950D01*
X79819345Y-104451950D02*
X79724107Y-104499569D01*
X79724107Y-104499569D02*
X79438393Y-104499569D01*
X79438393Y-104499569D02*
X79343155Y-104451950D01*
X79343155Y-104451950D02*
X79295536Y-104404330D01*
X96297917Y-66351950D02*
X96440774Y-66399569D01*
X96440774Y-66399569D02*
X96678869Y-66399569D01*
X96678869Y-66399569D02*
X96774107Y-66351950D01*
X96774107Y-66351950D02*
X96821726Y-66304330D01*
X96821726Y-66304330D02*
X96869345Y-66209092D01*
X96869345Y-66209092D02*
X96869345Y-66113854D01*
X96869345Y-66113854D02*
X96821726Y-66018616D01*
X96821726Y-66018616D02*
X96774107Y-65970997D01*
X96774107Y-65970997D02*
X96678869Y-65923378D01*
X96678869Y-65923378D02*
X96488393Y-65875759D01*
X96488393Y-65875759D02*
X96393155Y-65828140D01*
X96393155Y-65828140D02*
X96345536Y-65780521D01*
X96345536Y-65780521D02*
X96297917Y-65685283D01*
X96297917Y-65685283D02*
X96297917Y-65590045D01*
X96297917Y-65590045D02*
X96345536Y-65494807D01*
X96345536Y-65494807D02*
X96393155Y-65447188D01*
X96393155Y-65447188D02*
X96488393Y-65399569D01*
X96488393Y-65399569D02*
X96726488Y-65399569D01*
X96726488Y-65399569D02*
X96869345Y-65447188D01*
X97202679Y-65399569D02*
X97440774Y-66399569D01*
X97440774Y-66399569D02*
X97631250Y-65685283D01*
X97631250Y-65685283D02*
X97821726Y-66399569D01*
X97821726Y-66399569D02*
X98059822Y-65399569D01*
X98964583Y-66399569D02*
X98393155Y-66399569D01*
X98678869Y-66399569D02*
X98678869Y-65399569D01*
X98678869Y-65399569D02*
X98583631Y-65542426D01*
X98583631Y-65542426D02*
X98488393Y-65637664D01*
X98488393Y-65637664D02*
X98393155Y-65685283D01*
X76771726Y-66351950D02*
X76914583Y-66399569D01*
X76914583Y-66399569D02*
X77152678Y-66399569D01*
X77152678Y-66399569D02*
X77247916Y-66351950D01*
X77247916Y-66351950D02*
X77295535Y-66304330D01*
X77295535Y-66304330D02*
X77343154Y-66209092D01*
X77343154Y-66209092D02*
X77343154Y-66113854D01*
X77343154Y-66113854D02*
X77295535Y-66018616D01*
X77295535Y-66018616D02*
X77247916Y-65970997D01*
X77247916Y-65970997D02*
X77152678Y-65923378D01*
X77152678Y-65923378D02*
X76962202Y-65875759D01*
X76962202Y-65875759D02*
X76866964Y-65828140D01*
X76866964Y-65828140D02*
X76819345Y-65780521D01*
X76819345Y-65780521D02*
X76771726Y-65685283D01*
X76771726Y-65685283D02*
X76771726Y-65590045D01*
X76771726Y-65590045D02*
X76819345Y-65494807D01*
X76819345Y-65494807D02*
X76866964Y-65447188D01*
X76866964Y-65447188D02*
X76962202Y-65399569D01*
X76962202Y-65399569D02*
X77200297Y-65399569D01*
X77200297Y-65399569D02*
X77343154Y-65447188D01*
X77676488Y-65399569D02*
X77914583Y-66399569D01*
X77914583Y-66399569D02*
X78105059Y-65685283D01*
X78105059Y-65685283D02*
X78295535Y-66399569D01*
X78295535Y-66399569D02*
X78533631Y-65399569D01*
X79438392Y-66399569D02*
X78866964Y-66399569D01*
X79152678Y-66399569D02*
X79152678Y-65399569D01*
X79152678Y-65399569D02*
X79057440Y-65542426D01*
X79057440Y-65542426D02*
X78962202Y-65637664D01*
X78962202Y-65637664D02*
X78866964Y-65685283D01*
X80057440Y-65399569D02*
X80152678Y-65399569D01*
X80152678Y-65399569D02*
X80247916Y-65447188D01*
X80247916Y-65447188D02*
X80295535Y-65494807D01*
X80295535Y-65494807D02*
X80343154Y-65590045D01*
X80343154Y-65590045D02*
X80390773Y-65780521D01*
X80390773Y-65780521D02*
X80390773Y-66018616D01*
X80390773Y-66018616D02*
X80343154Y-66209092D01*
X80343154Y-66209092D02*
X80295535Y-66304330D01*
X80295535Y-66304330D02*
X80247916Y-66351950D01*
X80247916Y-66351950D02*
X80152678Y-66399569D01*
X80152678Y-66399569D02*
X80057440Y-66399569D01*
X80057440Y-66399569D02*
X79962202Y-66351950D01*
X79962202Y-66351950D02*
X79914583Y-66304330D01*
X79914583Y-66304330D02*
X79866964Y-66209092D01*
X79866964Y-66209092D02*
X79819345Y-66018616D01*
X79819345Y-66018616D02*
X79819345Y-65780521D01*
X79819345Y-65780521D02*
X79866964Y-65590045D01*
X79866964Y-65590045D02*
X79914583Y-65494807D01*
X79914583Y-65494807D02*
X79962202Y-65447188D01*
X79962202Y-65447188D02*
X80057440Y-65399569D01*
X81974405Y-50092319D02*
X81974405Y-49092319D01*
X81974405Y-49092319D02*
X82212500Y-49092319D01*
X82212500Y-49092319D02*
X82355357Y-49139938D01*
X82355357Y-49139938D02*
X82450595Y-49235176D01*
X82450595Y-49235176D02*
X82498214Y-49330414D01*
X82498214Y-49330414D02*
X82545833Y-49520890D01*
X82545833Y-49520890D02*
X82545833Y-49663747D01*
X82545833Y-49663747D02*
X82498214Y-49854223D01*
X82498214Y-49854223D02*
X82450595Y-49949461D01*
X82450595Y-49949461D02*
X82355357Y-50044700D01*
X82355357Y-50044700D02*
X82212500Y-50092319D01*
X82212500Y-50092319D02*
X81974405Y-50092319D01*
X83498214Y-50092319D02*
X82926786Y-50092319D01*
X83212500Y-50092319D02*
X83212500Y-49092319D01*
X83212500Y-49092319D02*
X83117262Y-49235176D01*
X83117262Y-49235176D02*
X83022024Y-49330414D01*
X83022024Y-49330414D02*
X82926786Y-49378033D01*
X79498214Y-51967319D02*
X78926786Y-51967319D01*
X79212500Y-51967319D02*
X79212500Y-50967319D01*
X79212500Y-50967319D02*
X79117262Y-51110176D01*
X79117262Y-51110176D02*
X79022024Y-51205414D01*
X79022024Y-51205414D02*
X78926786Y-51253033D01*
X96297917Y-104451950D02*
X96440774Y-104499569D01*
X96440774Y-104499569D02*
X96678869Y-104499569D01*
X96678869Y-104499569D02*
X96774107Y-104451950D01*
X96774107Y-104451950D02*
X96821726Y-104404330D01*
X96821726Y-104404330D02*
X96869345Y-104309092D01*
X96869345Y-104309092D02*
X96869345Y-104213854D01*
X96869345Y-104213854D02*
X96821726Y-104118616D01*
X96821726Y-104118616D02*
X96774107Y-104070997D01*
X96774107Y-104070997D02*
X96678869Y-104023378D01*
X96678869Y-104023378D02*
X96488393Y-103975759D01*
X96488393Y-103975759D02*
X96393155Y-103928140D01*
X96393155Y-103928140D02*
X96345536Y-103880521D01*
X96345536Y-103880521D02*
X96297917Y-103785283D01*
X96297917Y-103785283D02*
X96297917Y-103690045D01*
X96297917Y-103690045D02*
X96345536Y-103594807D01*
X96345536Y-103594807D02*
X96393155Y-103547188D01*
X96393155Y-103547188D02*
X96488393Y-103499569D01*
X96488393Y-103499569D02*
X96726488Y-103499569D01*
X96726488Y-103499569D02*
X96869345Y-103547188D01*
X97202679Y-103499569D02*
X97440774Y-104499569D01*
X97440774Y-104499569D02*
X97631250Y-103785283D01*
X97631250Y-103785283D02*
X97821726Y-104499569D01*
X97821726Y-104499569D02*
X98059822Y-103499569D01*
X98869345Y-103832902D02*
X98869345Y-104499569D01*
X98631250Y-103451950D02*
X98393155Y-104166235D01*
X98393155Y-104166235D02*
X99012202Y-104166235D01*
X91499405Y-50092319D02*
X91499405Y-49092319D01*
X91499405Y-49092319D02*
X91737500Y-49092319D01*
X91737500Y-49092319D02*
X91880357Y-49139938D01*
X91880357Y-49139938D02*
X91975595Y-49235176D01*
X91975595Y-49235176D02*
X92023214Y-49330414D01*
X92023214Y-49330414D02*
X92070833Y-49520890D01*
X92070833Y-49520890D02*
X92070833Y-49663747D01*
X92070833Y-49663747D02*
X92023214Y-49854223D01*
X92023214Y-49854223D02*
X91975595Y-49949461D01*
X91975595Y-49949461D02*
X91880357Y-50044700D01*
X91880357Y-50044700D02*
X91737500Y-50092319D01*
X91737500Y-50092319D02*
X91499405Y-50092319D01*
X92451786Y-49187557D02*
X92499405Y-49139938D01*
X92499405Y-49139938D02*
X92594643Y-49092319D01*
X92594643Y-49092319D02*
X92832738Y-49092319D01*
X92832738Y-49092319D02*
X92927976Y-49139938D01*
X92927976Y-49139938D02*
X92975595Y-49187557D01*
X92975595Y-49187557D02*
X93023214Y-49282795D01*
X93023214Y-49282795D02*
X93023214Y-49378033D01*
X93023214Y-49378033D02*
X92975595Y-49520890D01*
X92975595Y-49520890D02*
X92404167Y-50092319D01*
X92404167Y-50092319D02*
X93023214Y-50092319D01*
X89023214Y-51967319D02*
X88451786Y-51967319D01*
X88737500Y-51967319D02*
X88737500Y-50967319D01*
X88737500Y-50967319D02*
X88642262Y-51110176D01*
X88642262Y-51110176D02*
X88547024Y-51205414D01*
X88547024Y-51205414D02*
X88451786Y-51253033D01*
X58197917Y-104451950D02*
X58340774Y-104499569D01*
X58340774Y-104499569D02*
X58578869Y-104499569D01*
X58578869Y-104499569D02*
X58674107Y-104451950D01*
X58674107Y-104451950D02*
X58721726Y-104404330D01*
X58721726Y-104404330D02*
X58769345Y-104309092D01*
X58769345Y-104309092D02*
X58769345Y-104213854D01*
X58769345Y-104213854D02*
X58721726Y-104118616D01*
X58721726Y-104118616D02*
X58674107Y-104070997D01*
X58674107Y-104070997D02*
X58578869Y-104023378D01*
X58578869Y-104023378D02*
X58388393Y-103975759D01*
X58388393Y-103975759D02*
X58293155Y-103928140D01*
X58293155Y-103928140D02*
X58245536Y-103880521D01*
X58245536Y-103880521D02*
X58197917Y-103785283D01*
X58197917Y-103785283D02*
X58197917Y-103690045D01*
X58197917Y-103690045D02*
X58245536Y-103594807D01*
X58245536Y-103594807D02*
X58293155Y-103547188D01*
X58293155Y-103547188D02*
X58388393Y-103499569D01*
X58388393Y-103499569D02*
X58626488Y-103499569D01*
X58626488Y-103499569D02*
X58769345Y-103547188D01*
X59102679Y-103499569D02*
X59340774Y-104499569D01*
X59340774Y-104499569D02*
X59531250Y-103785283D01*
X59531250Y-103785283D02*
X59721726Y-104499569D01*
X59721726Y-104499569D02*
X59959822Y-103499569D01*
X60245536Y-103499569D02*
X60912202Y-103499569D01*
X60912202Y-103499569D02*
X60483631Y-104499569D01*
X58197917Y-85401950D02*
X58340774Y-85449569D01*
X58340774Y-85449569D02*
X58578869Y-85449569D01*
X58578869Y-85449569D02*
X58674107Y-85401950D01*
X58674107Y-85401950D02*
X58721726Y-85354330D01*
X58721726Y-85354330D02*
X58769345Y-85259092D01*
X58769345Y-85259092D02*
X58769345Y-85163854D01*
X58769345Y-85163854D02*
X58721726Y-85068616D01*
X58721726Y-85068616D02*
X58674107Y-85020997D01*
X58674107Y-85020997D02*
X58578869Y-84973378D01*
X58578869Y-84973378D02*
X58388393Y-84925759D01*
X58388393Y-84925759D02*
X58293155Y-84878140D01*
X58293155Y-84878140D02*
X58245536Y-84830521D01*
X58245536Y-84830521D02*
X58197917Y-84735283D01*
X58197917Y-84735283D02*
X58197917Y-84640045D01*
X58197917Y-84640045D02*
X58245536Y-84544807D01*
X58245536Y-84544807D02*
X58293155Y-84497188D01*
X58293155Y-84497188D02*
X58388393Y-84449569D01*
X58388393Y-84449569D02*
X58626488Y-84449569D01*
X58626488Y-84449569D02*
X58769345Y-84497188D01*
X59102679Y-84449569D02*
X59340774Y-85449569D01*
X59340774Y-85449569D02*
X59531250Y-84735283D01*
X59531250Y-84735283D02*
X59721726Y-85449569D01*
X59721726Y-85449569D02*
X59959822Y-84449569D01*
X60483631Y-84878140D02*
X60388393Y-84830521D01*
X60388393Y-84830521D02*
X60340774Y-84782902D01*
X60340774Y-84782902D02*
X60293155Y-84687664D01*
X60293155Y-84687664D02*
X60293155Y-84640045D01*
X60293155Y-84640045D02*
X60340774Y-84544807D01*
X60340774Y-84544807D02*
X60388393Y-84497188D01*
X60388393Y-84497188D02*
X60483631Y-84449569D01*
X60483631Y-84449569D02*
X60674107Y-84449569D01*
X60674107Y-84449569D02*
X60769345Y-84497188D01*
X60769345Y-84497188D02*
X60816964Y-84544807D01*
X60816964Y-84544807D02*
X60864583Y-84640045D01*
X60864583Y-84640045D02*
X60864583Y-84687664D01*
X60864583Y-84687664D02*
X60816964Y-84782902D01*
X60816964Y-84782902D02*
X60769345Y-84830521D01*
X60769345Y-84830521D02*
X60674107Y-84878140D01*
X60674107Y-84878140D02*
X60483631Y-84878140D01*
X60483631Y-84878140D02*
X60388393Y-84925759D01*
X60388393Y-84925759D02*
X60340774Y-84973378D01*
X60340774Y-84973378D02*
X60293155Y-85068616D01*
X60293155Y-85068616D02*
X60293155Y-85259092D01*
X60293155Y-85259092D02*
X60340774Y-85354330D01*
X60340774Y-85354330D02*
X60388393Y-85401950D01*
X60388393Y-85401950D02*
X60483631Y-85449569D01*
X60483631Y-85449569D02*
X60674107Y-85449569D01*
X60674107Y-85449569D02*
X60769345Y-85401950D01*
X60769345Y-85401950D02*
X60816964Y-85354330D01*
X60816964Y-85354330D02*
X60864583Y-85259092D01*
X60864583Y-85259092D02*
X60864583Y-85068616D01*
X60864583Y-85068616D02*
X60816964Y-84973378D01*
X60816964Y-84973378D02*
X60769345Y-84925759D01*
X60769345Y-84925759D02*
X60674107Y-84878140D01*
X96297917Y-85401950D02*
X96440774Y-85449569D01*
X96440774Y-85449569D02*
X96678869Y-85449569D01*
X96678869Y-85449569D02*
X96774107Y-85401950D01*
X96774107Y-85401950D02*
X96821726Y-85354330D01*
X96821726Y-85354330D02*
X96869345Y-85259092D01*
X96869345Y-85259092D02*
X96869345Y-85163854D01*
X96869345Y-85163854D02*
X96821726Y-85068616D01*
X96821726Y-85068616D02*
X96774107Y-85020997D01*
X96774107Y-85020997D02*
X96678869Y-84973378D01*
X96678869Y-84973378D02*
X96488393Y-84925759D01*
X96488393Y-84925759D02*
X96393155Y-84878140D01*
X96393155Y-84878140D02*
X96345536Y-84830521D01*
X96345536Y-84830521D02*
X96297917Y-84735283D01*
X96297917Y-84735283D02*
X96297917Y-84640045D01*
X96297917Y-84640045D02*
X96345536Y-84544807D01*
X96345536Y-84544807D02*
X96393155Y-84497188D01*
X96393155Y-84497188D02*
X96488393Y-84449569D01*
X96488393Y-84449569D02*
X96726488Y-84449569D01*
X96726488Y-84449569D02*
X96869345Y-84497188D01*
X97202679Y-84449569D02*
X97440774Y-85449569D01*
X97440774Y-85449569D02*
X97631250Y-84735283D01*
X97631250Y-84735283D02*
X97821726Y-85449569D01*
X97821726Y-85449569D02*
X98059822Y-84449569D01*
X98393155Y-84544807D02*
X98440774Y-84497188D01*
X98440774Y-84497188D02*
X98536012Y-84449569D01*
X98536012Y-84449569D02*
X98774107Y-84449569D01*
X98774107Y-84449569D02*
X98869345Y-84497188D01*
X98869345Y-84497188D02*
X98916964Y-84544807D01*
X98916964Y-84544807D02*
X98964583Y-84640045D01*
X98964583Y-84640045D02*
X98964583Y-84735283D01*
X98964583Y-84735283D02*
X98916964Y-84878140D01*
X98916964Y-84878140D02*
X98345536Y-85449569D01*
X98345536Y-85449569D02*
X98964583Y-85449569D01*
D13*
X61428690Y-49659729D02*
X61428690Y-50173776D01*
X61428690Y-50173776D02*
X61458928Y-50234252D01*
X61458928Y-50234252D02*
X61489166Y-50264491D01*
X61489166Y-50264491D02*
X61549642Y-50294729D01*
X61549642Y-50294729D02*
X61670595Y-50294729D01*
X61670595Y-50294729D02*
X61731071Y-50264491D01*
X61731071Y-50264491D02*
X61761309Y-50234252D01*
X61761309Y-50234252D02*
X61791547Y-50173776D01*
X61791547Y-50173776D02*
X61791547Y-49659729D01*
X62426547Y-50294729D02*
X62063690Y-50294729D01*
X62245118Y-50294729D02*
X62245118Y-49659729D01*
X62245118Y-49659729D02*
X62184642Y-49750443D01*
X62184642Y-49750443D02*
X62124166Y-49810919D01*
X62124166Y-49810919D02*
X62063690Y-49841157D01*
D12*
X58197917Y-66351950D02*
X58340774Y-66399569D01*
X58340774Y-66399569D02*
X58578869Y-66399569D01*
X58578869Y-66399569D02*
X58674107Y-66351950D01*
X58674107Y-66351950D02*
X58721726Y-66304330D01*
X58721726Y-66304330D02*
X58769345Y-66209092D01*
X58769345Y-66209092D02*
X58769345Y-66113854D01*
X58769345Y-66113854D02*
X58721726Y-66018616D01*
X58721726Y-66018616D02*
X58674107Y-65970997D01*
X58674107Y-65970997D02*
X58578869Y-65923378D01*
X58578869Y-65923378D02*
X58388393Y-65875759D01*
X58388393Y-65875759D02*
X58293155Y-65828140D01*
X58293155Y-65828140D02*
X58245536Y-65780521D01*
X58245536Y-65780521D02*
X58197917Y-65685283D01*
X58197917Y-65685283D02*
X58197917Y-65590045D01*
X58197917Y-65590045D02*
X58245536Y-65494807D01*
X58245536Y-65494807D02*
X58293155Y-65447188D01*
X58293155Y-65447188D02*
X58388393Y-65399569D01*
X58388393Y-65399569D02*
X58626488Y-65399569D01*
X58626488Y-65399569D02*
X58769345Y-65447188D01*
X59102679Y-65399569D02*
X59340774Y-66399569D01*
X59340774Y-66399569D02*
X59531250Y-65685283D01*
X59531250Y-65685283D02*
X59721726Y-66399569D01*
X59721726Y-66399569D02*
X59959822Y-65399569D01*
X60388393Y-66399569D02*
X60578869Y-66399569D01*
X60578869Y-66399569D02*
X60674107Y-66351950D01*
X60674107Y-66351950D02*
X60721726Y-66304330D01*
X60721726Y-66304330D02*
X60816964Y-66161473D01*
X60816964Y-66161473D02*
X60864583Y-65970997D01*
X60864583Y-65970997D02*
X60864583Y-65590045D01*
X60864583Y-65590045D02*
X60816964Y-65494807D01*
X60816964Y-65494807D02*
X60769345Y-65447188D01*
X60769345Y-65447188D02*
X60674107Y-65399569D01*
X60674107Y-65399569D02*
X60483631Y-65399569D01*
X60483631Y-65399569D02*
X60388393Y-65447188D01*
X60388393Y-65447188D02*
X60340774Y-65494807D01*
X60340774Y-65494807D02*
X60293155Y-65590045D01*
X60293155Y-65590045D02*
X60293155Y-65828140D01*
X60293155Y-65828140D02*
X60340774Y-65923378D01*
X60340774Y-65923378D02*
X60388393Y-65970997D01*
X60388393Y-65970997D02*
X60483631Y-66018616D01*
X60483631Y-66018616D02*
X60674107Y-66018616D01*
X60674107Y-66018616D02*
X60769345Y-65970997D01*
X60769345Y-65970997D02*
X60816964Y-65923378D01*
X60816964Y-65923378D02*
X60864583Y-65828140D01*
X77247917Y-85401950D02*
X77390774Y-85449569D01*
X77390774Y-85449569D02*
X77628869Y-85449569D01*
X77628869Y-85449569D02*
X77724107Y-85401950D01*
X77724107Y-85401950D02*
X77771726Y-85354330D01*
X77771726Y-85354330D02*
X77819345Y-85259092D01*
X77819345Y-85259092D02*
X77819345Y-85163854D01*
X77819345Y-85163854D02*
X77771726Y-85068616D01*
X77771726Y-85068616D02*
X77724107Y-85020997D01*
X77724107Y-85020997D02*
X77628869Y-84973378D01*
X77628869Y-84973378D02*
X77438393Y-84925759D01*
X77438393Y-84925759D02*
X77343155Y-84878140D01*
X77343155Y-84878140D02*
X77295536Y-84830521D01*
X77295536Y-84830521D02*
X77247917Y-84735283D01*
X77247917Y-84735283D02*
X77247917Y-84640045D01*
X77247917Y-84640045D02*
X77295536Y-84544807D01*
X77295536Y-84544807D02*
X77343155Y-84497188D01*
X77343155Y-84497188D02*
X77438393Y-84449569D01*
X77438393Y-84449569D02*
X77676488Y-84449569D01*
X77676488Y-84449569D02*
X77819345Y-84497188D01*
X78152679Y-84449569D02*
X78390774Y-85449569D01*
X78390774Y-85449569D02*
X78581250Y-84735283D01*
X78581250Y-84735283D02*
X78771726Y-85449569D01*
X78771726Y-85449569D02*
X79009822Y-84449569D01*
X79819345Y-84449569D02*
X79628869Y-84449569D01*
X79628869Y-84449569D02*
X79533631Y-84497188D01*
X79533631Y-84497188D02*
X79486012Y-84544807D01*
X79486012Y-84544807D02*
X79390774Y-84687664D01*
X79390774Y-84687664D02*
X79343155Y-84878140D01*
X79343155Y-84878140D02*
X79343155Y-85259092D01*
X79343155Y-85259092D02*
X79390774Y-85354330D01*
X79390774Y-85354330D02*
X79438393Y-85401950D01*
X79438393Y-85401950D02*
X79533631Y-85449569D01*
X79533631Y-85449569D02*
X79724107Y-85449569D01*
X79724107Y-85449569D02*
X79819345Y-85401950D01*
X79819345Y-85401950D02*
X79866964Y-85354330D01*
X79866964Y-85354330D02*
X79914583Y-85259092D01*
X79914583Y-85259092D02*
X79914583Y-85020997D01*
X79914583Y-85020997D02*
X79866964Y-84925759D01*
X79866964Y-84925759D02*
X79819345Y-84878140D01*
X79819345Y-84878140D02*
X79724107Y-84830521D01*
X79724107Y-84830521D02*
X79533631Y-84830521D01*
X79533631Y-84830521D02*
X79438393Y-84878140D01*
X79438393Y-84878140D02*
X79390774Y-84925759D01*
X79390774Y-84925759D02*
X79343155Y-85020997D01*
D14*
%TO.C,SW3*%
X71596250Y-104933750D02*
X85566250Y-104933750D01*
X71596250Y-118903750D02*
X71596250Y-104933750D01*
X85566250Y-104933750D02*
X85566250Y-118903750D01*
X85566250Y-118903750D02*
X71596250Y-118903750D01*
%TO.C,SW1*%
X90646250Y-66833750D02*
X104616250Y-66833750D01*
X90646250Y-80803750D02*
X90646250Y-66833750D01*
X104616250Y-66833750D02*
X104616250Y-80803750D01*
X104616250Y-80803750D02*
X90646250Y-80803750D01*
%TO.C,SW10*%
X71596250Y-66833750D02*
X85566250Y-66833750D01*
X71596250Y-80803750D02*
X71596250Y-66833750D01*
X85566250Y-66833750D02*
X85566250Y-80803750D01*
X85566250Y-80803750D02*
X71596250Y-80803750D01*
%TO.C,D1*%
X79762500Y-50437500D02*
X85662500Y-50437500D01*
X79762500Y-54337500D02*
X85662500Y-54337500D01*
X85662500Y-54337500D02*
X85662500Y-53262500D01*
%TO.C,SW4*%
X90646250Y-104933750D02*
X104616250Y-104933750D01*
X90646250Y-118903750D02*
X90646250Y-104933750D01*
X104616250Y-104933750D02*
X104616250Y-118903750D01*
X104616250Y-118903750D02*
X90646250Y-118903750D01*
%TO.C,D2*%
X89287500Y-50437500D02*
X95187500Y-50437500D01*
X89287500Y-54337500D02*
X95187500Y-54337500D01*
X95187500Y-54337500D02*
X95187500Y-53262500D01*
%TO.C,SW7*%
X52546250Y-104933750D02*
X66516250Y-104933750D01*
X52546250Y-118903750D02*
X52546250Y-104933750D01*
X66516250Y-104933750D02*
X66516250Y-118903750D01*
X66516250Y-118903750D02*
X52546250Y-118903750D01*
%TO.C,SW8*%
X52546250Y-85883750D02*
X66516250Y-85883750D01*
X52546250Y-99853750D02*
X52546250Y-85883750D01*
X66516250Y-85883750D02*
X66516250Y-99853750D01*
X66516250Y-99853750D02*
X52546250Y-99853750D01*
%TO.C,SW2*%
X90646250Y-85883750D02*
X104616250Y-85883750D01*
X90646250Y-99853750D02*
X90646250Y-85883750D01*
X104616250Y-85883750D02*
X104616250Y-99853750D01*
X104616250Y-99853750D02*
X90646250Y-99853750D01*
D15*
%TO.C,U1*%
X53022500Y-60896500D02*
X53022500Y-43751500D01*
X54927500Y-62801500D02*
X68897500Y-62801500D01*
X57417500Y-41846500D02*
X57421228Y-40936228D01*
X57921228Y-40436500D02*
X65916500Y-40436500D01*
X66416500Y-40936500D02*
X66416500Y-41846500D01*
D11*
X68897500Y-41846500D02*
X54927500Y-41846500D01*
D15*
X68897500Y-41846500D02*
X54927500Y-41846500D01*
X70802500Y-60896500D02*
X70802500Y-43751500D01*
X53022500Y-43751500D02*
G75*
G02*
X54927500Y-41846500I1905001J-1D01*
G01*
X54927500Y-62801500D02*
G75*
G02*
X53022500Y-60896500I1J1905001D01*
G01*
X57421228Y-40936228D02*
G75*
G02*
X57921228Y-40436501I500018J-291D01*
G01*
X65916500Y-40436500D02*
G75*
G02*
X66416500Y-40936500I0J-500000D01*
G01*
X68897500Y-41846500D02*
G75*
G02*
X70802500Y-43751500I0J-1905000D01*
G01*
X70802500Y-60896500D02*
G75*
G02*
X68897500Y-62801500I-1905000J0D01*
G01*
D16*
X53214500Y-42087500D02*
G75*
G02*
X52710500Y-42087500I-252000J0D01*
G01*
X52710500Y-42087500D02*
G75*
G02*
X53214500Y-42087500I252000J0D01*
G01*
X54357500Y-42967500D02*
G75*
G02*
X53853500Y-42967500I-252000J0D01*
G01*
X53853500Y-42967500D02*
G75*
G02*
X54357500Y-42967500I252000J0D01*
G01*
D14*
%TO.C,SW9*%
X52546250Y-66833750D02*
X66516250Y-66833750D01*
X52546250Y-80803750D02*
X52546250Y-66833750D01*
X66516250Y-66833750D02*
X66516250Y-80803750D01*
X66516250Y-80803750D02*
X52546250Y-80803750D01*
%TO.C,SW6*%
X71596250Y-85883750D02*
X85566250Y-85883750D01*
X71596250Y-99853750D02*
X71596250Y-85883750D01*
X85566250Y-85883750D02*
X85566250Y-99853750D01*
X85566250Y-99853750D02*
X71596250Y-99853750D01*
%TD*%
M02*
